<svg id="visual" viewBox="0 0 900 600" width="900" height="600" xmlns="http://www.w3.org/2000/svg" xmlns:xlink="http://www.w3.org/1999/xlink" version="1.1"><g><g transform="translate(63 474)"><path d="M0 -60L51.9 -30L51.9 30L0 60L-51.9 30L-51.9 -30Z" fill="none" stroke="#620afb" stroke-width="2"></path></g><g transform="translate(341 597)"><path d="M0 -40L34.6 -20L34.6 20L0 40L-34.6 20L-34.6 -20Z" stroke="#620afb" fill="none" stroke-width="2"></path></g><g transform="translate(618 280)"><path d="M0 -52L45 -26L45 26L0 52L-45 26L-45 -26Z" stroke="#620afb" fill="none" stroke-width="2"></path></g><g transform="translate(77 256)"><path d="M0 -31L26.8 -15.5L26.8 15.5L0 31L-26.8 15.5L-26.8 -15.5Z" stroke="#620afb" fill="none" stroke-width="2"></path></g><g transform="translate(325 402)"><path d="M0 -45L39 -22.5L39 22.5L0 45L-39 22.5L-39 -22.5Z" stroke="#620afb" fill="none" stroke-width="2"></path></g><g transform="translate(845 189)"><path d="M0 -38L32.9 -19L32.9 19L0 38L-32.9 19L-32.9 -19Z" stroke="#620afb" fill="none" stroke-width="2"></path></g><g transform="translate(361 117)"><path d="M0 -44L38.1 -22L38.1 22L0 44L-38.1 22L-38.1 -22Z" stroke="#620afb" fill="none" stroke-width="2"></path></g><g transform="translate(447 388)"><path d="M0 -47L40.7 -23.5L40.7 23.5L0 47L-40.7 23.5L-40.7 -23.5Z" stroke="#620afb" fill="none" stroke-width="2"></path></g><g transform="translate(690 455)"><path d="M0 -26L22.5 -13L22.5 13L0 26L-22.5 13L-22.5 -13Z" stroke="#620afb" fill="none" stroke-width="2"></path></g><g transform="translate(231 286)"><path d="M0 -58L50.2 -29L50.2 29L0 58L-50.2 29L-50.2 -29Z" stroke="#620afb" fill="none" stroke-width="2"></path></g><g transform="translate(6 116)"><path d="M0 -45L39 -22.5L39 22.5L0 45L-39 22.5L-39 -22.5Z" stroke="#620afb" fill="none" stroke-width="2"></path></g><g transform="translate(873 46)"><path d="M0 -42L36.4 -21L36.4 21L0 42L-36.4 21L-36.4 -21Z" stroke="#620afb" fill="none" stroke-width="2"></path></g><g transform="translate(677 585)"><path d="M0 -26L22.5 -13L22.5 13L0 26L-22.5 13L-22.5 -13Z" stroke="#620afb" fill="none" stroke-width="2"></path></g><g transform="translate(891 512)"><path d="M0 -52L45 -26L45 26L0 52L-45 26L-45 -26Z" stroke="#620afb" fill="none" stroke-width="2"></path></g><g transform="translate(199 125)"><path d="M0 -42L36.4 -21L36.4 21L0 42L-36.4 21L-36.4 -21Z" stroke="#620afb" fill="none" stroke-width="2"></path></g><g transform="translate(477 27)"><path d="M0 -27L23.4 -13.5L23.4 13.5L0 27L-23.4 13.5L-23.4 -13.5Z" stroke="#620afb" fill="none" stroke-width="2"></path></g><g transform="translate(518 540)"><path d="M0 -41L35.5 -20.5L35.5 20.5L0 41L-35.5 20.5L-35.5 -20.5Z" stroke="#620afb" fill="none" stroke-width="2"></path></g><g transform="translate(752 58)"><path d="M0 -35L30.3 -17.5L30.3 17.5L0 35L-30.3 17.5L-30.3 -17.5Z" stroke="#620afb" fill="none" stroke-width="2"></path></g><g transform="translate(530 198)"><path d="M0 -29L25.1 -14.5L25.1 14.5L0 29L-25.1 14.5L-25.1 -14.5Z" stroke="#620afb" fill="none" stroke-width="2"></path></g><g transform="translate(210 481)"><path d="M0 -30L26 -15L26 15L0 30L-26 15L-26 -15Z" stroke="#620afb" fill="none" stroke-width="2"></path></g><g transform="translate(639 136)"><path d="M0 -33L28.6 -16.5L28.6 16.5L0 33L-28.6 16.5L-28.6 -16.5Z" stroke="#620afb" fill="none" stroke-width="2"></path></g><g transform="translate(120 589)"><path d="M0 -44L38.1 -22L38.1 22L0 44L-38.1 22L-38.1 -22Z" stroke="#620afb" fill="none" stroke-width="2"></path></g><g transform="translate(778 348)"><path d="M0 -55L47.6 -27.5L47.6 27.5L0 55L-47.6 27.5L-47.6 -27.5Z" stroke="#620afb" fill="none" stroke-width="2"></path></g><g transform="translate(304 7)"><path d="M0 -42L36.4 -21L36.4 21L0 42L-36.4 21L-36.4 -21Z" stroke="#620afb" fill="none" stroke-width="2"></path></g><g transform="translate(136 18)"><path d="M0 -29L25.1 -14.5L25.1 14.5L0 29L-25.1 14.5L-25.1 -14.5Z" stroke="#620afb" fill="none" stroke-width="2"></path></g><g transform="translate(572 406)"><path d="M0 -48L41.6 -24L41.6 24L0 48L-41.6 24L-41.6 -24Z" stroke="#620afb" fill="none" stroke-width="2"></path></g><g transform="translate(600 15)"><path d="M0 -50L43.3 -25L43.3 25L0 50L-43.3 25L-43.3 -25Z" stroke="#620afb" fill="none" stroke-width="2"></path></g><g transform="translate(369 258)"><path d="M0 -39L33.8 -19.5L33.8 19.5L0 39L-33.8 19.5L-33.8 -19.5Z" stroke="#620afb" fill="none" stroke-width="2"></path></g><g transform="translate(6 362)"><path d="M0 -46L39.8 -23L39.8 23L0 46L-39.8 23L-39.8 -23Z" stroke="#620afb" fill="none" stroke-width="2"></path></g><g transform="translate(145 372)"><path d="M0 -35L30.3 -17.5L30.3 17.5L0 35L-30.3 17.5L-30.3 -17.5Z" stroke="#620afb" fill="none" stroke-width="2"></path></g><g transform="translate(895 318)"><path d="M0 -34L29.4 -17L29.4 17L0 34L-29.4 17L-29.4 -17Z" stroke="#620afb" fill="none" stroke-width="2"></path></g></g></svg>